<svg width="50" height="50" viewBox="0 0 50 50" fill="none" xmlns="http://www.w3.org/2000/svg">
<path d="M23.3292 26.3366L23.7499 26.0513L24.7024 25.3991C24.885 25.2769 25.1152 25.2769 25.2978 25.3991L26.2503 26.0513L26.671 26.3366C27.0282 26.5811 27.5045 26.3203 27.5045 25.8801V6.06409C27.5045 5.76249 27.2663 5.51794 26.9726 5.51794H23.0434C22.7498 5.51794 22.5116 5.76249 22.5116 6.06409V25.8801C22.4957 26.3121 22.972 26.5811 23.3292 26.3366Z" fill="url(#paint0_linear_3_112)"/>
<path d="M29.4015 26.4995L29.9968 26.9071L31.6637 28.0483L31.8701 28.195L32.4972 28.6189L33.3307 29.1895L34.9976 30.3307L36.6645 31.4719L37.498 32.0425L38.3315 32.6131L39.9984 33.7543L40.8318 34.3249C41.189 34.5694 41.6653 34.3086 41.6653 33.8684V22.0734V21.8288V21.7717V21.193V21.03V20.9892V6.25153C41.6653 5.81136 41.189 5.55051 40.8318 5.79506L39.9984 6.36565L38.3315 7.50684L37.498 8.07744L36.9027 8.48501C36.7518 8.59098 36.6645 8.76216 36.6645 8.94149V23.5895C36.6645 24.0297 36.1883 24.2905 35.8311 24.046L34.9976 23.4754L33.3307 22.3342L32.4972 21.7636L31.6637 21.193L31.243 20.9077L29.9968 20.0518C29.6396 19.8073 29.1633 20.0681 29.1633 20.5083V26.0349C29.1633 26.2224 29.2506 26.3936 29.4015 26.4995Z" fill="url(#paint1_linear_3_112)"/>
<path d="M10.0016 13.2128L11.6685 14.354L12.502 14.9246L13.3355 15.4952L15.0024 16.6364L16.6693 17.7776L17.5028 18.3482L18.3362 18.9188L20.0032 20.06C20.3604 20.3045 20.8366 20.0437 20.8366 19.6035V14.0769C20.8366 13.8894 20.7493 13.7182 20.5985 13.6204L20.0032 13.2128L18.3362 12.0717L17.5028 11.5011L16.6693 10.9305L15.0024 9.78927L13.3355 8.64808L12.502 8.07748L11.6685 7.50688L10.0016 6.36569L8.33466 5.2245L7.50119 4.6539L6.66773 4.08331L5.00079 2.94211L3.33386 1.80092L2.5004 1.23033L1.66693 0.65973L0.833466 0.0891334C0.476266 -0.147256 0 0.113588 0 0.553762V48.9811C0 49.4213 0.476266 49.6821 0.833466 49.4376L1.25417 49.1523L1.66693 48.867L3.09573 47.8888L3.96095 47.2937C3.96888 47.2856 3.97682 47.2856 3.98476 47.2774C4.02445 47.253 4.0562 47.2285 4.09589 47.2041C4.31815 47.0492 4.5404 46.8943 4.7706 46.7476C4.92142 46.6416 5.00873 46.4705 5.00873 46.2911V10.8163C5.00873 10.3762 5.485 10.1153 5.8422 10.3599L6.67566 10.9305L7.50913 11.5011L8.34259 12.0717L10.0016 13.2128Z" fill="url(#paint2_linear_3_112)"/>
<path d="M49.1585 0.0891334L48.3251 0.65973L47.4916 1.23033L46.6581 1.80092L45.2293 2.77909C45.0785 2.88505 44.9912 3.05623 44.9912 3.23556V39.5662C44.9912 40.0064 44.5149 40.2673 44.1577 40.0227L43.3243 39.4521L42.4908 38.8815L41.6653 38.3109L39.9984 37.1697L38.3314 36.0285L37.498 35.4579L36.6645 34.8874L34.9976 33.7462L33.3306 32.605L32.4972 32.0344L31.6637 31.4638L29.9968 30.3226L29.3697 29.8987L28.3298 29.1814L27.4964 28.6108L26.6629 28.0402L24.996 26.899L23.329 28.0402L22.4956 28.6108L21.6621 29.1814L20.6223 29.8987L19.9952 30.3226L19.5824 30.6079L18.3282 31.4638L17.4948 32.0344L16.6613 32.605L14.9944 33.7462L14.1609 34.3168C13.8037 34.5613 13.3275 34.3005 13.3275 33.8603V19.2123C13.3275 19.0248 13.2401 18.8536 13.0893 18.7558L12.494 18.3482L11.6605 17.7776L9.99359 16.6364L9.16013 16.0658C8.80293 15.8213 8.32666 16.0821 8.32666 16.5223V44.0169H8.58067C8.68386 44.0169 8.78705 43.9843 8.87437 43.9272L9.98565 43.161L11.2319 42.3051L11.6526 42.0198L13.3195 40.8786L13.7402 40.5933L14.9864 39.7374L16.2406 38.8815L16.6534 38.5962L18.3203 37.455L18.7331 37.1697L19.9872 36.3138L21.2335 35.4579L21.6542 35.1726L22.4876 34.6021L23.3211 34.0315L23.7418 33.7462L23.9482 33.5994L24.6943 33.094C24.8769 32.9718 25.1071 32.9718 25.2897 33.094L26.0358 33.6076L26.2422 33.7462L26.6629 34.0315L27.4964 34.6021L28.3298 35.1726L28.7505 35.4579L29.9968 36.3138L31.2509 37.1697L31.6637 37.455L33.3306 38.5962L33.7434 38.8815L34.9976 39.7374L36.2438 40.5933L36.6645 40.8786L38.3314 42.0198L38.7521 42.3051L39.9984 43.161L41.2446 44.0169L41.6653 44.3022L43.3322 45.4434L43.7529 45.7287L44.9991 46.5846L46.2533 47.4405L46.6661 47.7258L48.333 48.867L48.7458 49.1523L49.1665 49.4376C49.5237 49.6821 49.9999 49.4213 49.9999 48.9811V0.553762C49.992 0.113588 49.5157 -0.147256 49.1585 0.0891334Z" fill="url(#paint3_linear_3_112)"/>
<path d="M27.2583 35.8655L26.6629 35.458L24.996 34.3168L23.3291 35.458L22.7337 35.8655C22.5829 35.9715 22.4956 36.1427 22.4956 36.322V49.4539C22.4956 49.7555 22.7337 50 23.0274 50H26.9566C27.2503 50 27.4885 49.7555 27.4885 49.4539V36.322C27.4964 36.1427 27.4091 35.9715 27.2583 35.8655Z" fill="url(#paint4_linear_3_112)"/>
<defs>
<linearGradient id="paint0_linear_3_112" x1="25.4053" y1="26.4306" x2="21.9607" y2="26.1971" gradientUnits="userSpaceOnUse">
<stop stop-color="#5D45FD"/>
<stop offset="1" stop-color="#A89CFF"/>
</linearGradient>
<linearGradient id="paint1_linear_3_112" x1="36.4095" y1="34.4189" x2="27.8756" y2="33.3644" gradientUnits="userSpaceOnUse">
<stop stop-color="#5D45FD"/>
<stop offset="1" stop-color="#A89CFF"/>
</linearGradient>
<linearGradient id="paint2_linear_3_112" x1="12.077" y1="49.5316" x2="-2.16045" y2="47.8317" gradientUnits="userSpaceOnUse">
<stop stop-color="#5D45FD"/>
<stop offset="1" stop-color="#A89CFF"/>
</linearGradient>
<linearGradient id="paint3_linear_3_112" x1="32.4806" y1="49.5316" x2="5.15785" y2="43.007" gradientUnits="userSpaceOnUse">
<stop stop-color="#5D45FD"/>
<stop offset="1" stop-color="#A89CFF"/>
</linearGradient>
<linearGradient id="paint4_linear_3_112" x1="25.3898" y1="50" x2="21.9573" y2="49.6898" gradientUnits="userSpaceOnUse">
<stop stop-color="#5D45FD"/>
<stop offset="1" stop-color="#A89CFF"/>
</linearGradient>
</defs>
</svg>
